HIERARCHY
ROOT hip
{
	OFFSET 0.000000 0.000000 0.000000 
	CHANNELS 6 Xposition Yposition Zposition Xrotation Zrotation Yrotation
	JOINT abdomen
	{
		OFFSET 0.000000 3.402643 0.000000 
		CHANNELS 3 Xrotation Zrotation Yrotation
		JOINT chest
		{
			OFFSET 0.000000 8.438565 -0.680529 
			CHANNELS 3 Xrotation Zrotation Yrotation
			JOINT neck
			{
				OFFSET 0.000000 10.207942 -0.272212 
				CHANNELS 3 Xrotation Zrotation Yrotation
				JOINT head
				{
					OFFSET 0.000000 3.130431 0.000000 
					CHANNELS 3 Xrotation Zrotation Yrotation
					End Site
					{
						OFFSET 0.000000 3.130435 0.000000 
					}
				}
			}
			JOINT lCollar
			{
				OFFSET 3.470700 6.669187 -0.816635 
				CHANNELS 3 Yrotation Zrotation Xrotation
				JOINT lShldr
				{
					OFFSET 3.198488 0.000000 0.000000 
					CHANNELS 3 Zrotation Yrotation Xrotation
					JOINT lForeArm
					{
						OFFSET 10.139888 0.000000 0.000000 
						CHANNELS 3 Yrotation Zrotation Xrotation
						JOINT lHand
						{
							OFFSET 8.370511 0.000000 0.000000 
							CHANNELS 3 Zrotation Yrotation Xrotation
							End Site
							{
								OFFSET 4.083176 0.000000 0.000000 
							}
						}
					}
				}
			}
			JOINT rCollar
			{
				OFFSET -3.470700 6.669187 -0.816635 
				CHANNELS 3 Yrotation Zrotation Xrotation
				JOINT rShldr
				{
					OFFSET -3.198488 0.000000 0.000000 
					CHANNELS 3 Zrotation Yrotation Xrotation
					JOINT rForeArm
					{
						OFFSET -10.139888 0.000000 0.000000 
						CHANNELS 3 Yrotation Zrotation Xrotation
						JOINT rHand
						{
							OFFSET -8.370511 0.000000 0.000000 
							CHANNELS 3 Zrotation Yrotation Xrotation
							End Site
							{
								OFFSET -4.083176 0.000000 0.000000 
							}
						}
					}
				}
			}
		}
	}
	JOINT lThigh
	{
		OFFSET 5.308129 -1.633274 1.361059 
		CHANNELS 3 Xrotation Zrotation Yrotation
		JOINT lShin
		{
			OFFSET -2.041588 -20.007561 0.000000 
			CHANNELS 3 Xrotation Zrotation Yrotation
			JOINT lFoot
			{
				OFFSET 0.000000 -19.190928 -1.224953 
				CHANNELS 3 Xrotation Yrotation Zrotation
				End Site
				{
					OFFSET 0.000000 -2.449906 4.627600 
				}
			}
		}
	}
	JOINT rThigh
	{
		OFFSET -5.308129 -1.633274 1.361059 
		CHANNELS 3 Xrotation Zrotation Yrotation
		JOINT rShin
		{
			OFFSET 2.041588 -20.007561 0.000000 
			CHANNELS 3 Xrotation Zrotation Yrotation
			JOINT rFoot
			{
				OFFSET 0.000000 -19.190928 -1.224953 
				CHANNELS 3 Xrotation Yrotation Zrotation
				End Site
				{
					OFFSET 0.000000 -2.449906 4.627600 
				}
			}
		}
	}
}
MOTION
Frames: 16
Frame Time: 0.016667
3.946184 48.509418 2.679270 0.010019 -0.095553 -27.187557 0.000000 0.000000 0.000000 9.056000 1.064448 0.175932 2.383757 1.109056 9.054615 -2.341836 -4.022100 13.764486 -3.929203 -25.000000 -0.837448 -54.261177 8.344778 -8.448392 -126.190331 -24.918972 2.817876 -16.771095 -20.551876 -8.971543 -3.208874 24.995708 -2.119712 51.449741 2.245315 -1.475950 121.965530 28.404985 -0.132480 -9.349732 -0.449422 4.012372 -5.766258 -0.068901 5.036964 19.446342 -4.542119 16.167671 -10.880909 6.801143 3.611066 -3.632040 -9.555573 -10.911986 19.995846 -2.987729 0.520047 -9.764735 -3.765998 9.898021 
3.891309 48.541477 2.693797 -0.013322 -0.069591 -27.031277 0.000000 0.000000 0.000000 8.665671 1.044916 0.195458 1.948087 1.687783 9.037306 -1.364096 -4.327421 13.672040 -3.968916 -25.000000 -0.815623 -54.411831 8.684012 -8.245968 -126.575165 -24.892994 2.955832 -17.057785 -21.170452 -8.694025 -3.355879 24.991291 -1.979912 51.721256 2.344152 -1.301346 121.931061 28.167336 0.127919 -9.398466 -0.367737 4.306665 -4.912859 -0.401206 5.586216 18.120731 -3.622078 15.884348 -10.221478 6.558807 3.195086 -3.270929 -9.399861 -10.991014 19.501610 -3.085986 0.391832 -9.634093 -3.836904 9.950407 
3.689264 48.625431 2.703150 0.254551 0.096009 -26.650415 0.000000 0.000000 0.000000 7.300039 1.035144 0.283333 2.543305 1.950147 8.667356 -0.802944 -4.124537 13.874385 -4.015724 -25.000000 -0.719587 -54.601944 8.675329 -8.153790 -126.965729 -24.860949 2.816769 -17.096859 -21.186279 -9.356250 -3.598174 24.994434 -1.774630 52.572716 2.500001 -0.621187 121.764336 27.409502 0.529146 -9.811823 -0.380510 4.861588 -4.548242 -0.732058 5.228607 16.869879 -3.037766 16.210659 -9.618552 6.314799 2.938132 -2.860100 -8.702550 -9.875220 18.349287 -3.320210 -0.737813 -9.135513 -4.401095 9.997572 
3.613614 48.654106 2.680601 0.368516 0.201004 -26.504068 0.000000 0.000000 0.000000 6.249939 1.035111 0.537198 3.152947 2.000348 8.296154 -0.510786 -4.076446 13.912645 -4.041615 -25.000000 -0.039441 -54.927700 8.199613 -8.397185 -127.385841 -24.591955 2.822840 -17.246279 -21.115358 -9.998830 -4.346330 24.998920 -1.063275 52.849003 2.511831 -0.371023 121.746117 27.180901 0.551785 -10.010993 -0.399994 4.938669 -4.113504 -1.054121 4.893089 15.835256 -2.468503 16.664762 -9.077242 6.126840 2.587039 -2.850247 -8.459740 -9.284424 18.032990 -3.397772 -1.356952 -8.987339 -4.575938 10.002337 
3.362900 48.733559 2.613422 0.666845 0.614274 -26.026924 0.000000 0.000000 0.000000 5.356258 0.888659 0.302849 3.428720 1.875961 8.031965 -0.455728 -3.815953 14.182057 -4.209195 -25.000000 -0.462142 -55.221317 8.473969 -8.253326 -127.226837 -24.667738 2.923719 -16.940376 -21.566908 -10.249239 -4.060976 24.992798 -1.581988 53.540096 2.568770 0.191010 121.722481 26.695648 0.483072 -10.642726 -0.390765 5.179597 -4.009169 -1.522240 4.244926 14.887900 -2.051237 17.095238 -8.596154 5.971375 2.386795 -2.860804 -7.936011 -7.698216 17.270443 -3.593046 -3.078684 -8.601941 -5.028706 9.988463 
3.297566 48.755535 2.608351 0.700764 0.729199 -25.890896 0.000000 0.000000 0.000000 4.907737 0.878890 0.351671 3.644855 1.722102 7.826048 -0.389414 -3.654050 14.237994 -4.242474 -25.000000 -0.331423 -55.436974 8.204144 -8.331004 -127.074905 -24.725986 3.034047 -16.659204 -21.919716 -10.530362 -4.218118 24.997389 -1.464067 53.746475 2.613706 0.312039 121.730652 26.573498 0.423846 -10.779029 -0.337817 5.341792 -3.646437 -1.775381 4.206641 14.118470 -1.642175 17.176374 -8.216521 5.839153 2.205062 -2.732930 -7.815583 -7.398017 16.984327 -3.690198 -3.406223 -8.528827 -5.219677 9.975444 
3.059324 48.828587 2.629774 0.773281 1.023045 -25.433887 0.000000 0.000000 0.000000 4.395685 0.751952 0.088011 3.791149 1.548709 7.620195 -0.392848 -3.529619 14.324490 -4.393128 -25.000000 -0.985429 -55.379326 8.503315 -7.966087 -127.433411 -24.164167 3.034679 -16.943129 -21.704596 -10.989100 -3.721219 25.000000 -1.944474 54.130642 2.693441 0.559390 121.852295 26.306385 0.333437 -10.888423 -0.028002 5.862005 -3.440222 -2.125770 4.147654 13.399009 -1.258285 17.002054 -7.810816 5.654875 2.020353 -2.127668 -7.434335 -7.478315 15.905982 -4.023011 -3.688185 -8.295940 -5.457150 9.847301 
3.068558 48.844627 2.587582 0.791721 1.095101 -25.268440 0.000000 0.000000 0.000000 4.083280 0.732421 0.097773 3.948362 1.365293 7.463227 -0.369509 -3.369203 14.292325 -4.471196 -25.000000 -1.146670 -55.401211 8.316283 -7.692737 -127.535721 -23.508240 3.287303 -17.361675 -21.636179 -11.213602 -3.778476 24.999031 -1.904941 54.171181 2.695670 0.632044 121.887924 26.209761 0.297198 -10.896789 0.114021 6.024020 -3.144433 -2.206800 4.441095 12.852302 -0.907082 16.733526 -7.480242 5.516187 1.809286 -2.137467 -7.521098 -7.620272 15.816605 -3.983729 -3.722860 -8.224893 -5.405962 9.828851 
2.934017 48.875450 2.614762 0.682557 1.143618 -24.800177 0.000000 0.000000 0.000000 3.894327 0.703122 -0.175768 4.138542 1.191239 7.374693 -0.555729 -3.245474 14.339395 -4.496636 -25.000000 -1.277354 -55.482899 8.094874 -7.420934 -127.256958 -23.128120 3.679396 -17.684114 -21.732033 -11.079716 -3.202858 24.992220 -2.368155 54.087280 2.751417 0.853447 121.956017 25.945734 0.256480 -11.007228 0.773478 6.266732 -2.828433 -2.263418 4.342546 12.482107 -0.731614 16.456024 -7.281316 5.397784 1.701900 -1.513436 -7.331092 -8.622561 15.247412 -4.227112 -3.480281 -8.207779 -5.267604 9.710492 
2.912524 48.880775 2.622459 0.613890 1.109463 -24.653343 0.000000 0.000000 0.000000 3.748818 0.693358 -0.097649 4.288689 1.172329 7.198948 -0.597839 -3.216950 14.349147 -4.480562 -25.000000 -1.329778 -55.624477 7.826372 -7.148778 -126.912346 -22.833330 4.082452 -17.954441 -21.863453 -10.741830 -3.303730 24.992340 -2.311420 53.952034 3.046374 1.116868 121.686554 25.700998 0.295849 -10.968518 1.040602 6.324260 -2.716218 -2.202503 4.354815 12.405872 -0.751833 16.311256 -7.259058 5.364729 1.685928 -1.269013 -7.266882 -9.021580 15.051613 -4.295365 -3.381073 -8.220263 -5.118939 9.682386 
2.853949 48.872746 2.637438 0.342958 0.953018 -24.212406 0.000000 0.000000 0.000000 3.893536 0.751947 -0.224590 4.106484 1.066094 7.052099 -0.607388 -3.148931 14.475353 -4.537750 -25.000000 -1.373270 -55.825111 7.546869 -6.876259 -126.539719 -22.531605 4.501057 -18.132248 -21.960087 -10.426336 -2.935445 24.994402 -2.560666 53.721912 3.058578 0.917570 121.802902 25.981987 0.095807 -11.231664 0.890413 6.474407 -2.343067 -2.078758 4.248797 12.301845 -0.743480 15.916748 -7.185506 5.371780 1.663342 -0.742305 -7.171570 -10.016856 15.054835 -4.434699 -2.742451 -8.406161 -5.271449 9.619954 
2.828963 48.859097 2.650921 0.267344 0.909388 -24.085159 0.000000 0.000000 0.000000 3.837769 0.712891 -0.009765 3.990921 1.115085 6.827534 -0.758011 -3.193236 14.681172 -4.669785 -25.000000 -1.364246 -55.991608 7.293166 -6.642606 -126.266663 -22.216589 4.774021 -18.330849 -21.987341 -10.109033 -3.144909 24.990952 -2.525453 53.613159 3.122760 0.913844 121.747467 26.027323 0.045520 -10.928588 1.055593 6.629601 -2.243448 -2.067962 4.240648 12.314780 -0.701879 15.910053 -7.200799 5.265430 1.605599 -0.674076 -7.152179 -10.035121 15.265178 -4.443427 -2.724301 -8.558599 -5.434021 9.638599 
2.812068 48.854649 2.595550 0.132316 0.931478 -23.489546 0.000000 0.000000 0.000000 3.864147 0.615227 -0.283187 3.880825 1.125234 6.632260 -0.900838 -3.163905 14.749421 -4.800724 -25.000000 -1.394654 -56.168953 7.113023 -6.430269 -126.149971 -21.945745 4.981516 -18.452421 -22.000965 -9.875244 -2.927687 24.997427 -2.765571 53.210377 3.433408 1.054773 121.379684 26.213564 -0.031432 -11.270077 1.083710 6.764911 -2.292834 -1.912316 4.095372 12.580674 -0.761345 15.569796 -7.235430 5.141655 1.465126 -0.586735 -7.160262 -10.350332 15.496223 -4.403144 -2.865632 -8.720694 -5.590324 9.584971 
2.783394 48.849407 2.558144 0.098985 0.978702 -23.157728 0.000000 0.000000 0.000000 3.834961 0.537101 -0.312486 3.886179 1.125738 6.407503 -1.181830 -3.161910 14.886457 -4.887159 -25.000000 -1.438075 -56.287514 6.975873 -6.209836 -126.112350 -21.672504 5.170074 -18.660748 -21.956160 -9.841502 -3.070835 24.996080 -2.795824 52.985252 3.590051 1.146513 121.183319 26.343658 0.058531 -11.124746 1.233979 6.904015 -2.288243 -1.890290 3.910183 12.610214 -0.829739 15.464093 -7.229250 5.084771 1.493035 -0.645158 -7.182666 -10.322419 15.741293 -4.386584 -3.029591 -8.811304 -5.746916 9.563152 
2.729061 48.851120 2.513258 0.086129 0.998611 -22.894268 0.000000 0.000000 0.000000 3.815897 0.498041 -0.283192 3.802115 0.999749 6.319438 -1.405756 -3.020887 14.844832 -5.003802 -25.000000 -1.459656 -56.313374 6.799441 -6.129353 -126.101196 -21.535017 5.195849 -18.448231 -22.029629 -9.893387 -2.938811 25.000000 -2.948630 52.910744 3.627962 0.980111 120.976639 26.449532 0.170110 -10.908936 1.390493 7.022621 -2.472906 -1.744371 4.049798 12.843753 -0.907820 15.093712 -7.257934 5.027562 1.479252 -0.644960 -7.077356 -10.276402 15.811145 -4.375104 -3.165475 -8.859738 -5.947821 9.478769 
2.688442 48.853554 2.475481 0.081475 1.000754 -22.601183 0.000000 0.000000 0.000000 3.804958 0.507800 -0.410140 3.825965 0.961050 6.250919 -1.707063 -3.001057 14.913092 -4.962755 -25.000000 -1.525060 -56.264149 6.765655 -5.996683 -126.265633 -21.351517 5.233723 -18.531754 -21.976501 -10.034004 -2.960915 24.995701 -3.009788 52.804710 3.661427 1.047355 120.859680 26.573313 0.276838 -10.634544 1.613899 7.169908 -2.528387 -1.707957 3.958009 12.946192 -0.880166 14.906279 -7.267268 5.009936 1.439636 -0.596028 -6.949090 -10.366442 15.781381 -4.433573 -3.319150 -8.852741 -6.024595 9.453971 
